<?xml version="1.0" standalone="no"?>
<!DOCTYPE svg PUBLIC "-//W3C//DTD SVG 20010904//EN"
 "http://www.w3.org/TR/2001/REC-SVG-20010904/DTD/svg10.dtd">
<svg version="1.0" xmlns="http://www.w3.org/2000/svg"
 width="1708.000000pt" height="1708.000000pt" viewBox="0 0 1708.000000 1708.000000"
 preserveAspectRatio="xMidYMid meet">
<metadata>
Created by potrace 1.14, written by Peter Selinger 2001-2017
</metadata>
<g transform="translate(0.000000,1708.000000) scale(0.100000,-0.100000)"
fill="#000000" stroke="none">
<path d="M8148 14010 c-624 -39 -1448 -215 -1883 -403 -589 -254 -1048 -675
-1327 -1217 -71 -138 -90 -183 -160 -385 -361 -1042 -405 -2208 -122 -3285 46
-175 144 -473 195 -596 191 -459 488 -823 922 -1132 100 -71 287 -179 397
-230 427 -196 1145 -367 1795 -427 188 -17 516 -35 528 -28 11 6 8 1119 -3
1258 -28 332 -84 611 -180 896 -141 418 -308 702 -575 978 -255 263 -588 461
-950 566 -96 28 -366 85 -402 85 -28 0 -31 -15 -39 -230 -19 -543 80 -1146
256 -1550 190 -440 459 -737 839 -929 211 -107 442 -174 694 -202 l107 -12 0
-145 0 -145 -92 6 c-173 12 -455 73 -626 136 -206 76 -436 205 -587 329 -60
48 -221 209 -279 277 -130 154 -276 402 -371 630 -112 272 -190 591 -231 950
-22 193 -30 656 -15 853 13 163 36 340 46 350 8 8 260 -16 402 -38 500 -80
948 -274 1298 -563 97 -80 301 -293 374 -391 214 -285 369 -590 475 -936 15
-47 29 -92 32 -100 3 -8 18 25 33 75 56 182 105 304 196 490 246 501 579 860
1031 1113 339 189 735 304 1187 343 111 10 140 10 147 0 13 -22 40 -286 50
-489 15 -294 -10 -688 -61 -972 -121 -676 -387 -1196 -792 -1547 -376 -326
-853 -499 -1434 -520 l-183 -6 0 -279 0 -278 64 0 c82 0 404 26 566 45 257 31
532 81 780 141 603 146 933 288 1299 557 243 179 499 458 657 717 218 358 400
928 498 1557 75 486 81 1041 16 1558 -65 509 -223 1093 -391 1445 -53 109
-171 316 -189 330 -3 3 -21 28 -40 55 -18 28 -63 86 -100 130 -360 429 -803
714 -1380 886 -441 132 -879 217 -1395 269 -140 14 -896 21 -1077 10z"/>
<path d="M10835 10070 c-395 -72 -765 -233 -1040 -454 -78 -63 -240 -223 -310
-306 -186 -223 -369 -570 -470 -890 -67 -215 -130 -520 -155 -745 -5 -55 -13
-194 -17 -309 l-6 -209 159 6 c1051 40 1697 621 1924 1731 64 314 94 779 71
1101 -7 107 0 103 -156 75z"/>
<path d="M2284 4885 l-90 -43 -31 -88 c-34 -98 -71 -202 -132 -369 -39 -108
-162 -451 -441 -1225 -78 -217 -159 -431 -179 -475 -71 -152 -129 -193 -287
-202 l-95 -6 3 -51 3 -51 418 -3 417 -2 0 55 c0 30 -3 55 -7 55 -215 3 -268
15 -303 72 -34 54 -22 119 76 392 48 133 91 253 96 269 l10 27 511 0 512 0 93
-278 c52 -152 96 -298 99 -323 11 -101 -48 -145 -211 -156 l-96 -6 0 -54 0
-53 420 0 420 0 0 55 c0 30 -3 55 -7 55 -161 5 -180 7 -218 27 -79 41 -81 45
-195 382 -34 100 -138 409 -232 685 -93 275 -217 641 -274 811 -58 171 -121
356 -139 412 -18 56 -37 108 -42 116 -6 11 -26 6 -99 -28z m19 -247 c14 -40
111 -336 216 -658 106 -322 196 -595 201 -607 l10 -23 -476 0 c-449 0 -476 1
-469 18 3 9 25 67 47 127 59 163 142 389 208 570 78 214 205 561 221 608 7 20
14 37 15 37 1 0 13 -33 27 -72z"/>
<path d="M4601 4899 c-133 -34 -215 -82 -317 -183 -147 -148 -198 -271 -198
-476 0 -137 17 -210 75 -328 100 -205 276 -303 692 -387 204 -40 271 -61 381
-118 269 -139 355 -391 221 -646 -48 -90 -103 -151 -186 -207 -188 -125 -439
-137 -658 -32 -158 76 -389 276 -523 453 -42 55 -49 60 -88 63 -31 2 -41 -1
-38 -10 3 -7 54 -142 114 -300 92 -241 112 -288 129 -288 10 0 40 20 65 45
l46 45 105 -49 c145 -68 303 -119 414 -133 391 -49 738 179 829 545 56 225 14
394 -138 548 -128 131 -310 211 -591 263 -206 38 -289 61 -392 111 -193 94
-293 260 -293 483 1 197 113 376 286 458 92 43 140 53 250 54 187 0 332 -61
475 -200 83 -81 186 -224 249 -342 24 -46 27 -48 67 -48 24 0 43 3 43 6 0 3
-27 92 -61 197 -34 106 -75 239 -93 297 -21 66 -38 106 -47 108 -9 1 -36 -16
-62 -38 l-46 -41 -71 36 c-254 128 -452 163 -639 114z"/>
<path d="M6403 4572 c-67 -174 -125 -325 -129 -334 -5 -16 0 -18 38 -18 l43 0
49 83 c95 160 206 292 303 359 146 100 438 149 557 93 70 -34 67 32 64 -1129
-3 -1037 -3 -1045 -24 -1072 -44 -60 -66 -68 -185 -72 l-109 -4 0 -54 0 -54
410 0 410 0 0 55 0 55 -100 0 c-122 0 -170 16 -202 69 l-23 36 -3 1038 c-3
1158 -7 1084 67 1129 33 21 48 23 161 22 330 -2 493 -104 697 -436 66 -108 66
-108 106 -108 33 0 38 3 33 18 -4 9 -68 158 -144 329 l-137 313 -880 0 -880 0
-122 -318z"/>
<path d="M9080 4835 l0 -55 84 0 c52 0 97 -6 120 -15 45 -19 91 -87 106 -159
8 -36 10 -343 8 -1031 l-3 -980 -24 -38 c-37 -60 -85 -79 -194 -76 l-92 2 -3
-57 -3 -56 889 0 889 0 46 108 c25 59 89 205 141 325 l94 217 -46 0 -47 -1
-41 -72 c-108 -188 -244 -331 -379 -398 -129 -63 -172 -69 -570 -69 -392 0
-407 3 -456 71 l-24 34 -3 508 -3 507 302 0 c361 0 414 -7 469 -59 49 -46 69
-112 77 -254 l6 -108 41 3 41 3 3 450 c2 247 0 460 -3 472 -4 19 -12 23 -44
23 l-38 0 -6 -107 c-10 -173 -39 -242 -120 -286 -41 -21 -53 -22 -385 -25
l-343 -3 3 463 3 463 28 56 c45 92 32 90 480 89 417 -1 465 -6 559 -57 61 -33
155 -132 203 -214 36 -61 125 -261 125 -279 0 -6 21 -10 46 -10 39 0 45 3 40
18 -3 9 -32 105 -65 212 -32 107 -75 248 -95 313 -20 65 -36 120 -36 123 0 2
-400 4 -890 4 l-890 0 0 -55z"/>
<path d="M11630 4836 l0 -54 109 -4 c104 -3 111 -5 147 -34 21 -16 43 -46 50
-65 10 -26 13 -266 13 -1054 1 -981 0 -1022 -18 -1062 -28 -61 -64 -76 -193
-81 l-108 -4 0 -54 0 -54 405 0 405 0 0 55 0 55 -80 0 c-112 0 -171 15 -206
51 l-29 30 -5 505 -5 504 244 -2 244 -3 77 -140 c76 -140 435 -787 533 -962
l52 -93 218 0 217 0 0 55 0 55 -88 0 c-127 0 -176 18 -232 84 -36 44 -152 235
-288 476 -10 19 -83 145 -161 279 -77 134 -141 247 -141 251 0 4 48 15 106 24
216 36 386 107 504 211 140 124 202 261 203 450 1 61 -4 134 -12 165 -56 232
-241 379 -545 435 -155 28 -324 35 -868 35 l-548 0 0 -54z m1212 -67 c127 -14
268 -49 336 -83 72 -36 163 -125 200 -194 141 -263 30 -575 -251 -707 -172
-80 -346 -105 -749 -105 l-258 0 0 500 c0 356 3 506 12 524 14 33 49 55 101
66 63 12 492 12 609 -1z"/>
<path d="M14140 4835 l0 -55 87 0 c125 0 165 -21 207 -109 l31 -66 3 -964 c2
-654 -1 -981 -8 -1016 -13 -65 -58 -121 -108 -135 -20 -5 -76 -10 -124 -10
l-88 0 0 -55 0 -55 892 2 892 3 138 320 c76 176 138 321 138 322 0 2 -19 3
-43 3 -42 0 -43 -1 -82 -67 -124 -212 -279 -367 -428 -426 -109 -44 -166 -49
-547 -45 -402 3 -401 3 -442 81 -23 42 -23 45 -26 540 l-3 497 313 0 c392 0
452 -12 494 -92 29 -56 36 -91 43 -208 l6 -115 43 -3 42 -3 0 476 0 476 -42
-3 -43 -3 -7 -115 c-9 -172 -35 -232 -116 -272 -46 -22 -54 -23 -389 -26
l-343 -3 0 417 c0 438 6 512 43 579 43 75 44 75 468 75 393 0 455 -5 539 -44
130 -61 242 -211 340 -458 22 -57 23 -58 61 -58 22 0 39 5 39 11 0 5 -23 85
-51 177 -28 92 -57 187 -64 212 -7 25 -28 95 -47 155 l-34 110 -892 3 -892 2
0 -55z"/>
</g>
</svg>
